<mxfile host="app.diagrams.net" modified="2022-08-26T21:08:16.918Z" agent="5.0 (Macintosh; Intel Mac OS X 10_15_7) AppleWebKit/537.36 (KHTML, like Gecko) Chrome/104.0.0.0 Safari/537.36" etag="iQ5xCk7tclDpAPLSaJUU" version="20.2.5" type="github">
  <diagram id="C5RBs43oDa-KdzZeNtuy" name="Page-1">
    <mxGraphModel dx="2852" dy="1602" grid="1" gridSize="10" guides="1" tooltips="1" connect="1" arrows="1" fold="1" page="1" pageScale="1" pageWidth="827" pageHeight="1169" math="0" shadow="0">
      <root>
        <mxCell id="WIyWlLk6GJQsqaUBKTNV-0" />
        <mxCell id="WIyWlLk6GJQsqaUBKTNV-1" parent="WIyWlLk6GJQsqaUBKTNV-0" />
        <mxCell id="urKNFZyR7NJDDOvEf_uz-40" value="" style="rounded=1;whiteSpace=wrap;html=1;fillColor=default;" vertex="1" parent="WIyWlLk6GJQsqaUBKTNV-1">
          <mxGeometry x="341.3" y="570" width="990" height="770" as="geometry" />
        </mxCell>
        <mxCell id="urKNFZyR7NJDDOvEf_uz-5" value="" style="rounded=1;whiteSpace=wrap;html=1;fillColor=default;" vertex="1" parent="WIyWlLk6GJQsqaUBKTNV-1">
          <mxGeometry x="510" y="60" width="652.6" height="370" as="geometry" />
        </mxCell>
        <mxCell id="urKNFZyR7NJDDOvEf_uz-6" value="ViewerModel" style="swimlane;fontStyle=0;childLayout=stackLayout;horizontal=1;startSize=30;horizontalStack=0;resizeParent=1;resizeParentMax=0;resizeLast=0;collapsible=1;marginBottom=0;fontSize=16;fillColor=#dae8fc;strokeColor=#6c8ebf;fontFamily=Courier New;" vertex="1" parent="WIyWlLk6GJQsqaUBKTNV-1">
          <mxGeometry x="735.86" y="139.48000000000002" width="196.74" height="112.22222222222221" as="geometry" />
        </mxCell>
        <mxCell id="urKNFZyR7NJDDOvEf_uz-7" value="layers: list[Layer]" style="text;strokeColor=none;fillColor=none;align=left;verticalAlign=middle;spacingLeft=4;spacingRight=4;overflow=hidden;points=[[0,0.5],[1,0.5]];portConstraint=eastwest;rotatable=0;fontSize=12;fontFamily=Courier New;" vertex="1" parent="urKNFZyR7NJDDOvEf_uz-6">
          <mxGeometry y="30" width="196.74" height="27.4074074074074" as="geometry" />
        </mxCell>
        <mxCell id="urKNFZyR7NJDDOvEf_uz-50" value="dims: Dims" style="text;strokeColor=none;fillColor=none;align=left;verticalAlign=middle;spacingLeft=4;spacingRight=4;overflow=hidden;points=[[0,0.5],[1,0.5]];portConstraint=eastwest;rotatable=0;fontSize=12;fontFamily=Courier New;" vertex="1" parent="urKNFZyR7NJDDOvEf_uz-6">
          <mxGeometry y="57.407407407407405" width="196.74" height="27.4074074074074" as="geometry" />
        </mxCell>
        <mxCell id="urKNFZyR7NJDDOvEf_uz-8" value="scale_bar: ScaleBar" style="text;strokeColor=none;fillColor=none;align=left;verticalAlign=middle;spacingLeft=4;spacingRight=4;overflow=hidden;points=[[0,0.5],[1,0.5]];portConstraint=eastwest;rotatable=0;fontSize=12;fontFamily=Courier New;" vertex="1" parent="urKNFZyR7NJDDOvEf_uz-6">
          <mxGeometry y="84.81481481481481" width="196.74" height="27.4074074074074" as="geometry" />
        </mxCell>
        <mxCell id="urKNFZyR7NJDDOvEf_uz-9" value="Dims" style="swimlane;fontStyle=0;childLayout=stackLayout;horizontal=1;startSize=30;horizontalStack=0;resizeParent=1;resizeParentMax=0;resizeLast=0;collapsible=1;marginBottom=0;fontSize=16;fillColor=#dae8fc;strokeColor=#6c8ebf;fontFamily=Courier New;" vertex="1" parent="WIyWlLk6GJQsqaUBKTNV-1">
          <mxGeometry x="552.6" y="290" width="240" height="84.81481481481481" as="geometry" />
        </mxCell>
        <mxCell id="urKNFZyR7NJDDOvEf_uz-10" value="ndim: int" style="text;strokeColor=none;fillColor=none;align=left;verticalAlign=middle;spacingLeft=4;spacingRight=4;overflow=hidden;points=[[0,0.5],[1,0.5]];portConstraint=eastwest;rotatable=0;fontSize=12;fontFamily=Courier New;" vertex="1" parent="urKNFZyR7NJDDOvEf_uz-9">
          <mxGeometry y="30" width="240" height="27.40740740740741" as="geometry" />
        </mxCell>
        <mxCell id="urKNFZyR7NJDDOvEf_uz-11" value="axis_labels: tuple[str, ...]" style="text;strokeColor=none;fillColor=none;align=left;verticalAlign=middle;spacingLeft=4;spacingRight=4;overflow=hidden;points=[[0,0.5],[1,0.5]];portConstraint=eastwest;rotatable=0;fontSize=12;fontFamily=Courier New;" vertex="1" parent="urKNFZyR7NJDDOvEf_uz-9">
          <mxGeometry y="57.407407407407405" width="240" height="27.40740740740741" as="geometry" />
        </mxCell>
        <mxCell id="urKNFZyR7NJDDOvEf_uz-13" value="&lt;font style=&quot;font-size: 20px;&quot;&gt;napari.components&lt;/font&gt;" style="text;html=1;strokeColor=none;fillColor=none;align=center;verticalAlign=middle;whiteSpace=wrap;rounded=0;" vertex="1" parent="WIyWlLk6GJQsqaUBKTNV-1">
          <mxGeometry x="636.2" y="80.00024691358024" width="400.20000000000005" height="27.4074074074074" as="geometry" />
        </mxCell>
        <mxCell id="urKNFZyR7NJDDOvEf_uz-14" style="edgeStyle=orthogonalEdgeStyle;curved=1;rounded=0;orthogonalLoop=1;jettySize=auto;html=1;exitX=0;exitY=0.5;exitDx=0;exitDy=0;entryX=0.5;entryY=0;entryDx=0;entryDy=0;" edge="1" parent="WIyWlLk6GJQsqaUBKTNV-1" source="urKNFZyR7NJDDOvEf_uz-50" target="urKNFZyR7NJDDOvEf_uz-9">
          <mxGeometry relative="1" as="geometry" />
        </mxCell>
        <mxCell id="urKNFZyR7NJDDOvEf_uz-17" value="ScaleBar" style="swimlane;fontStyle=0;childLayout=stackLayout;horizontal=1;startSize=30;horizontalStack=0;resizeParent=1;resizeParentMax=0;resizeLast=0;collapsible=1;marginBottom=0;fontSize=16;fillColor=#dae8fc;strokeColor=#6c8ebf;fontFamily=Courier New;" vertex="1" parent="WIyWlLk6GJQsqaUBKTNV-1">
          <mxGeometry x="882.6" y="290" width="240" height="57.407407407407405" as="geometry" />
        </mxCell>
        <mxCell id="urKNFZyR7NJDDOvEf_uz-18" value="unit: tuple[str, ...]" style="text;strokeColor=none;fillColor=none;align=left;verticalAlign=middle;spacingLeft=4;spacingRight=4;overflow=hidden;points=[[0,0.5],[1,0.5]];portConstraint=eastwest;rotatable=0;fontSize=12;fontFamily=Courier New;" vertex="1" parent="urKNFZyR7NJDDOvEf_uz-17">
          <mxGeometry y="30" width="240" height="27.40740740740741" as="geometry" />
        </mxCell>
        <mxCell id="urKNFZyR7NJDDOvEf_uz-20" style="edgeStyle=orthogonalEdgeStyle;rounded=0;orthogonalLoop=1;jettySize=auto;html=1;exitX=1;exitY=0.5;exitDx=0;exitDy=0;entryX=0.5;entryY=0;entryDx=0;entryDy=0;curved=1;" edge="1" parent="WIyWlLk6GJQsqaUBKTNV-1" source="urKNFZyR7NJDDOvEf_uz-8" target="urKNFZyR7NJDDOvEf_uz-17">
          <mxGeometry relative="1" as="geometry" />
        </mxCell>
        <mxCell id="urKNFZyR7NJDDOvEf_uz-21" value="Layer" style="swimlane;fontStyle=0;childLayout=stackLayout;horizontal=1;startSize=30;horizontalStack=0;resizeParent=1;resizeParentMax=0;resizeLast=0;collapsible=1;marginBottom=0;fontSize=16;fillColor=#dae8fc;strokeColor=#6c8ebf;fontFamily=Courier New;" vertex="1" parent="WIyWlLk6GJQsqaUBKTNV-1">
          <mxGeometry x="711.3" y="650" width="250" height="221.85185185185188" as="geometry" />
        </mxCell>
        <mxCell id="urKNFZyR7NJDDOvEf_uz-22" value="data: array-lke" style="text;strokeColor=none;fillColor=none;align=left;verticalAlign=middle;spacingLeft=4;spacingRight=4;overflow=hidden;points=[[0,0.5],[1,0.5]];portConstraint=eastwest;rotatable=0;fontSize=12;fontFamily=Courier New;" vertex="1" parent="urKNFZyR7NJDDOvEf_uz-21">
          <mxGeometry y="30" width="250" height="27.40740740740741" as="geometry" />
        </mxCell>
        <mxCell id="urKNFZyR7NJDDOvEf_uz-24" value="metadata: dict" style="text;strokeColor=none;fillColor=none;align=left;verticalAlign=middle;spacingLeft=4;spacingRight=4;overflow=hidden;points=[[0,0.5],[1,0.5]];portConstraint=eastwest;rotatable=0;fontSize=12;fontFamily=Courier New;" vertex="1" parent="urKNFZyR7NJDDOvEf_uz-21">
          <mxGeometry y="57.407407407407405" width="250" height="27.40740740740741" as="geometry" />
        </mxCell>
        <mxCell id="urKNFZyR7NJDDOvEf_uz-25" value="scale: Array[(D,), float]" style="text;strokeColor=none;fillColor=none;align=left;verticalAlign=middle;spacingLeft=4;spacingRight=4;overflow=hidden;points=[[0,0.5],[1,0.5]];portConstraint=eastwest;rotatable=0;fontSize=12;fontFamily=Courier New;" vertex="1" parent="urKNFZyR7NJDDOvEf_uz-21">
          <mxGeometry y="84.81481481481481" width="250" height="27.40740740740741" as="geometry" />
        </mxCell>
        <mxCell id="urKNFZyR7NJDDOvEf_uz-26" value="translate: Array[(D,), float]" style="text;strokeColor=none;fillColor=none;align=left;verticalAlign=middle;spacingLeft=4;spacingRight=4;overflow=hidden;points=[[0,0.5],[1,0.5]];portConstraint=eastwest;rotatable=0;fontSize=12;fontFamily=Courier New;" vertex="1" parent="urKNFZyR7NJDDOvEf_uz-21">
          <mxGeometry y="112.22222222222221" width="250" height="27.40740740740741" as="geometry" />
        </mxCell>
        <mxCell id="urKNFZyR7NJDDOvEf_uz-27" value="rotate: Array[(D, D), float]" style="text;strokeColor=none;fillColor=none;align=left;verticalAlign=middle;spacingLeft=4;spacingRight=4;overflow=hidden;points=[[0,0.5],[1,0.5]];portConstraint=eastwest;rotatable=0;fontSize=12;fontFamily=Courier New;" vertex="1" parent="urKNFZyR7NJDDOvEf_uz-21">
          <mxGeometry y="139.62962962962962" width="250" height="27.40740740740741" as="geometry" />
        </mxCell>
        <mxCell id="urKNFZyR7NJDDOvEf_uz-28" value="shear: Array[(D, D), float]" style="text;strokeColor=none;fillColor=none;align=left;verticalAlign=middle;spacingLeft=4;spacingRight=4;overflow=hidden;points=[[0,0.5],[1,0.5]];portConstraint=eastwest;rotatable=0;fontSize=12;fontFamily=Courier New;" vertex="1" parent="urKNFZyR7NJDDOvEf_uz-21">
          <mxGeometry y="167.03703703703704" width="250" height="27.40740740740741" as="geometry" />
        </mxCell>
        <mxCell id="urKNFZyR7NJDDOvEf_uz-29" value="affine: Affine" style="text;strokeColor=none;fillColor=none;align=left;verticalAlign=middle;spacingLeft=4;spacingRight=4;overflow=hidden;points=[[0,0.5],[1,0.5]];portConstraint=eastwest;rotatable=0;fontSize=12;fontFamily=Courier New;" vertex="1" parent="urKNFZyR7NJDDOvEf_uz-21">
          <mxGeometry y="194.44444444444446" width="250" height="27.40740740740741" as="geometry" />
        </mxCell>
        <mxCell id="urKNFZyR7NJDDOvEf_uz-43" style="edgeStyle=orthogonalEdgeStyle;curved=1;rounded=0;orthogonalLoop=1;jettySize=auto;html=1;exitX=0.5;exitY=0;exitDx=0;exitDy=0;entryX=0.5;entryY=0;entryDx=0;entryDy=0;" edge="1" parent="WIyWlLk6GJQsqaUBKTNV-1" source="urKNFZyR7NJDDOvEf_uz-31" target="urKNFZyR7NJDDOvEf_uz-21">
          <mxGeometry relative="1" as="geometry" />
        </mxCell>
        <mxCell id="urKNFZyR7NJDDOvEf_uz-31" value="Image" style="swimlane;fontStyle=0;childLayout=stackLayout;horizontal=1;startSize=30;horizontalStack=0;resizeParent=1;resizeParentMax=0;resizeLast=0;collapsible=1;marginBottom=0;fontSize=16;fillColor=#dae8fc;strokeColor=#6c8ebf;fontFamily=Courier New;" vertex="1" parent="WIyWlLk6GJQsqaUBKTNV-1">
          <mxGeometry x="402.59999999999997" y="960" width="250" height="84.81481481481481" as="geometry" />
        </mxCell>
        <mxCell id="urKNFZyR7NJDDOvEf_uz-32" value="rgb: bool" style="text;strokeColor=none;fillColor=none;align=left;verticalAlign=middle;spacingLeft=4;spacingRight=4;overflow=hidden;points=[[0,0.5],[1,0.5]];portConstraint=eastwest;rotatable=0;fontSize=12;fontFamily=Courier New;" vertex="1" parent="urKNFZyR7NJDDOvEf_uz-31">
          <mxGeometry y="30" width="250" height="27.40740740740741" as="geometry" />
        </mxCell>
        <mxCell id="urKNFZyR7NJDDOvEf_uz-33" value="level_shapes: Array[(L, D), int]" style="text;strokeColor=none;fillColor=none;align=left;verticalAlign=middle;spacingLeft=4;spacingRight=4;overflow=hidden;points=[[0,0.5],[1,0.5]];portConstraint=eastwest;rotatable=0;fontSize=12;fontFamily=Courier New;" vertex="1" parent="urKNFZyR7NJDDOvEf_uz-31">
          <mxGeometry y="57.407407407407405" width="250" height="27.40740740740741" as="geometry" />
        </mxCell>
        <mxCell id="urKNFZyR7NJDDOvEf_uz-41" value="&lt;font style=&quot;font-size: 20px;&quot;&gt;napari.layers&lt;/font&gt;" style="text;html=1;strokeColor=none;fillColor=none;align=center;verticalAlign=middle;whiteSpace=wrap;rounded=0;" vertex="1" parent="WIyWlLk6GJQsqaUBKTNV-1">
          <mxGeometry x="636.2" y="582.5902469135802" width="400.20000000000005" height="27.4074074074074" as="geometry" />
        </mxCell>
        <mxCell id="urKNFZyR7NJDDOvEf_uz-49" style="edgeStyle=orthogonalEdgeStyle;curved=1;rounded=0;orthogonalLoop=1;jettySize=auto;html=1;exitX=0.5;exitY=0;exitDx=0;exitDy=0;" edge="1" parent="WIyWlLk6GJQsqaUBKTNV-1" source="urKNFZyR7NJDDOvEf_uz-44">
          <mxGeometry relative="1" as="geometry">
            <mxPoint x="527.5857142857142" y="960" as="targetPoint" />
            <Array as="points">
              <mxPoint x="371.3" y="1130" />
              <mxPoint x="371.3" y="910" />
              <mxPoint x="527.3" y="910" />
            </Array>
          </mxGeometry>
        </mxCell>
        <mxCell id="urKNFZyR7NJDDOvEf_uz-44" value="Labels" style="swimlane;fontStyle=0;childLayout=stackLayout;horizontal=1;startSize=30;horizontalStack=0;resizeParent=1;resizeParentMax=0;resizeLast=0;collapsible=1;marginBottom=0;fontSize=16;fillColor=#dae8fc;strokeColor=#6c8ebf;fontFamily=Courier New;" vertex="1" parent="WIyWlLk6GJQsqaUBKTNV-1">
          <mxGeometry x="402.59999999999997" y="1130" width="250" height="57.407407407407405" as="geometry" />
        </mxCell>
        <mxCell id="urKNFZyR7NJDDOvEf_uz-45" value="features: table-like" style="text;strokeColor=none;fillColor=none;align=left;verticalAlign=middle;spacingLeft=4;spacingRight=4;overflow=hidden;points=[[0,0.5],[1,0.5]];portConstraint=eastwest;rotatable=0;fontSize=12;fontFamily=Courier New;" vertex="1" parent="urKNFZyR7NJDDOvEf_uz-44">
          <mxGeometry y="30" width="250" height="27.40740740740741" as="geometry" />
        </mxCell>
        <mxCell id="urKNFZyR7NJDDOvEf_uz-51" style="edgeStyle=orthogonalEdgeStyle;curved=1;rounded=0;orthogonalLoop=1;jettySize=auto;html=1;exitX=0;exitY=0.5;exitDx=0;exitDy=0;entryX=0.5;entryY=0;entryDx=0;entryDy=0;" edge="1" parent="WIyWlLk6GJQsqaUBKTNV-1" source="urKNFZyR7NJDDOvEf_uz-7" target="urKNFZyR7NJDDOvEf_uz-21">
          <mxGeometry relative="1" as="geometry" />
        </mxCell>
      </root>
    </mxGraphModel>
  </diagram>
</mxfile>
